<svg xmlns="http://www.w3.org/2000/svg" xmlns:xlink="http://www.w3.org/1999/xlink" width="75" zoomAndPan="magnify" viewBox="0 0 56.25 56.249997" height="75" preserveAspectRatio="xMidYMid meet" version="1.0"><defs><clipPath id="id1"><path d="M 27 22 L 48 22 L 48 55.511719 L 27 55.511719 Z M 27 22 " clip-rule="nonzero"/></clipPath></defs><path fill="#26cdd1" d="M 47.882812 26.9375 C 47.382812 26.636719 47.222656 25.988281 47.523438 25.492188 C 47.824219 24.992188 48.472656 24.832031 48.972656 25.132812 C 49.46875 25.433594 49.628906 26.082031 49.328125 26.582031 C 49.027344 27.082031 48.378906 27.242188 47.882812 26.9375 Z M 50.4375 26.964844 C 50.871094 26.035156 50.59375 24.902344 49.78125 24.28125 C 49.421875 24.003906 49.015625 23.859375 48.605469 23.824219 C 45.054688 17.949219 37.679688 15.714844 31.519531 18.472656 C 30.835938 18.78125 30.558594 19.605469 30.933594 20.253906 C 31.257812 20.816406 31.949219 21.035156 32.539062 20.773438 C 37.539062 18.527344 43.523438 20.328125 46.429688 25.078125 C 45.941406 26.097656 46.292969 27.335938 47.28125 27.933594 C 48.398438 28.609375 49.871094 28.183594 50.4375 26.964844 " fill-opacity="1" fill-rule="nonzero"/><path fill="#26cdd1" d="M 50.292969 40.652344 C 49.792969 40.351562 49.632812 39.703125 49.933594 39.207031 C 50.234375 38.707031 50.882812 38.546875 51.382812 38.847656 C 51.882812 39.148438 52.039062 39.796875 51.738281 40.296875 C 51.4375 40.796875 50.789062 40.957031 50.292969 40.652344 Z M 52.617188 41.074219 C 53.136719 40.367188 53.175781 39.480469 52.820312 38.765625 C 55.46875 33.476562 55.308594 27.160156 52.332031 22 C 49.972656 17.910156 46.164062 14.984375 41.609375 13.761719 C 37.488281 12.660156 33.207031 13.066406 29.402344 14.898438 C 28.746094 15.214844 28.492188 16.027344 28.859375 16.660156 C 29.1875 17.226562 29.894531 17.449219 30.488281 17.164062 C 37.550781 13.769531 46.175781 16.351562 50.15625 23.253906 C 52.691406 27.652344 52.84375 33.027344 50.621094 37.542969 C 49.949219 37.609375 49.316406 37.980469 48.941406 38.605469 C 48.265625 39.722656 48.695312 41.203125 49.914062 41.769531 C 50.855469 42.203125 52 41.910156 52.617188 41.074219 " fill-opacity="1" fill-rule="nonzero"/><path fill="#0e3196" d="M 38.839844 44.980469 C 38.851562 44.398438 39.332031 43.9375 39.914062 43.949219 C 40.5 43.960938 40.960938 44.441406 40.949219 45.023438 C 40.9375 45.605469 40.457031 46.070312 39.875 46.058594 C 39.292969 46.046875 38.828125 45.5625 38.839844 44.980469 Z M 40.097656 47.210938 C 41.117188 47.121094 41.960938 46.316406 42.089844 45.296875 C 42.148438 44.851562 42.074219 44.421875 41.898438 44.050781 C 45.207031 38.039062 43.453125 30.527344 37.984375 26.570312 C 37.378906 26.128906 36.527344 26.300781 36.152344 26.953125 C 35.828125 27.511719 35.984375 28.222656 36.507812 28.597656 C 40.945312 31.8125 42.382812 37.902344 39.722656 42.792969 C 38.597656 42.878906 37.703125 43.804688 37.679688 44.957031 C 37.652344 46.265625 38.761719 47.328125 40.097656 47.210938 " fill-opacity="1" fill-rule="nonzero"/><g clip-path="url(#id1)"><path fill="#0e3196" d="M 28.179688 53.929688 C 28.191406 53.347656 28.671875 52.882812 29.253906 52.894531 C 29.835938 52.90625 30.296875 53.386719 30.289062 53.96875 C 30.277344 54.554688 29.792969 55.015625 29.210938 55.003906 C 28.628906 54.992188 28.167969 54.511719 28.179688 53.929688 Z M 28.976562 56.152344 C 29.847656 56.25 30.636719 55.839844 31.078125 55.175781 C 36.976562 54.824219 42.363281 51.53125 45.339844 46.367188 C 47.699219 42.28125 48.328125 37.515625 47.105469 32.957031 C 46 28.835938 43.507812 25.324219 40.023438 22.945312 C 39.417969 22.53125 38.589844 22.722656 38.226562 23.355469 C 37.898438 23.921875 38.0625 24.648438 38.601562 25.019531 C 45.074219 29.441406 47.148438 38.210938 43.167969 45.113281 C 40.628906 49.507812 36.054688 52.324219 31.035156 52.660156 C 30.640625 52.109375 30.003906 51.746094 29.277344 51.734375 C 27.96875 51.707031 26.90625 52.820312 27.027344 54.160156 C 27.121094 55.191406 27.945312 56.035156 28.976562 56.152344 " fill-opacity="1" fill-rule="nonzero"/></g><path fill="#26cdd1" d="M 18.707031 46.167969 C 19.21875 45.886719 19.859375 46.070312 20.140625 46.582031 C 20.421875 47.09375 20.234375 47.734375 19.726562 48.015625 C 19.214844 48.296875 18.574219 48.113281 18.292969 47.601562 C 18.011719 47.089844 18.199219 46.449219 18.707031 46.167969 Z M 17.40625 48.371094 C 17.996094 49.210938 19.113281 49.535156 20.058594 49.144531 C 20.476562 48.96875 20.808594 48.691406 21.039062 48.351562 C 27.898438 48.210938 33.519531 42.9375 34.214844 36.21875 C 34.289062 35.472656 33.714844 34.820312 32.964844 34.820312 C 32.320312 34.820312 31.78125 35.308594 31.714844 35.953125 C 31.15625 41.40625 26.605469 45.695312 21.046875 45.839844 C 20.410156 44.90625 19.15625 44.59375 18.148438 45.148438 C 17.003906 45.78125 16.636719 47.273438 17.40625 48.371094 " fill-opacity="1" fill-rule="nonzero"/><path fill="#26cdd1" d="M 5.636719 41.398438 C 6.144531 41.117188 6.785156 41.304688 7.066406 41.816406 C 7.347656 42.324219 7.164062 42.964844 6.652344 43.25 C 6.144531 43.527344 5.5 43.34375 5.21875 42.832031 C 4.941406 42.324219 5.125 41.679688 5.636719 41.398438 Z M 4.109375 43.203125 C 4.460938 44.007812 5.210938 44.488281 6.007812 44.535156 C 9.257812 49.472656 14.804688 52.496094 20.757812 52.496094 C 25.476562 52.496094 29.910156 50.65625 33.246094 47.320312 C 36.261719 44.300781 38.050781 40.382812 38.367188 36.171875 C 38.421875 35.445312 37.84375 34.820312 37.113281 34.820312 C 36.460938 34.820312 35.914062 35.324219 35.863281 35.980469 C 35.269531 43.800781 28.722656 49.980469 20.757812 49.980469 C 15.683594 49.980469 10.960938 47.425781 8.160156 43.242188 C 8.441406 42.625 8.4375 41.890625 8.085938 41.253906 C 7.453125 40.109375 5.960938 39.742188 4.859375 40.515625 C 4.011719 41.113281 3.695312 42.253906 4.109375 43.203125 " fill-opacity="1" fill-rule="nonzero"/><path fill="#0e3196" d="M 7.617188 29.3125 C 8.113281 29.613281 8.273438 30.261719 7.972656 30.757812 C 7.671875 31.257812 7.023438 31.417969 6.523438 31.117188 C 6.027344 30.816406 5.867188 30.167969 6.167969 29.667969 C 6.46875 29.167969 7.117188 29.007812 7.617188 29.3125 Z M 5.058594 29.285156 C 4.625 30.214844 4.902344 31.347656 5.71875 31.96875 C 6.074219 32.246094 6.484375 32.390625 6.890625 32.425781 C 10.441406 38.300781 17.816406 40.535156 23.976562 37.777344 C 24.660156 37.46875 24.9375 36.644531 24.5625 35.992188 C 24.242188 35.433594 23.546875 35.214844 22.957031 35.476562 C 17.960938 37.722656 11.972656 35.921875 9.070312 31.171875 C 9.558594 30.152344 9.203125 28.914062 8.21875 28.316406 C 7.101562 27.640625 5.625 28.066406 5.058594 29.285156 " fill-opacity="1" fill-rule="nonzero"/><path fill="#0e3196" d="M 5.207031 15.597656 C 5.703125 15.898438 5.863281 16.546875 5.5625 17.042969 C 5.261719 17.542969 4.613281 17.703125 4.113281 17.402344 C 3.617188 17.101562 3.457031 16.453125 3.757812 15.953125 C 4.058594 15.453125 4.707031 15.292969 5.207031 15.597656 Z M 2.882812 15.175781 C 2.359375 15.882812 2.320312 16.769531 2.675781 17.484375 C 0.03125 22.773438 0.1875 29.089844 3.164062 34.25 C 5.523438 38.339844 9.332031 41.265625 13.890625 42.488281 C 18.007812 43.589844 22.292969 43.183594 26.09375 41.351562 C 26.753906 41.035156 27.003906 40.222656 26.636719 39.589844 C 26.308594 39.023438 25.601562 38.800781 25.011719 39.085938 C 17.945312 42.480469 9.324219 39.898438 5.339844 32.996094 C 2.804688 28.597656 2.652344 23.222656 4.875 18.707031 C 5.546875 18.640625 6.179688 18.269531 6.554688 17.644531 C 7.234375 16.527344 6.804688 15.046875 5.582031 14.480469 C 4.640625 14.046875 3.496094 14.339844 2.882812 15.175781 " fill-opacity="1" fill-rule="nonzero"/><path fill="#26cdd1" d="M 16.65625 11.269531 C 16.644531 11.851562 16.164062 12.3125 15.582031 12.300781 C 15 12.289062 14.535156 11.808594 14.546875 11.226562 C 14.558594 10.644531 15.039062 10.179688 15.625 10.191406 C 16.207031 10.203125 16.667969 10.683594 16.65625 11.269531 Z M 15.398438 9.039062 C 14.378906 9.128906 13.539062 9.933594 13.40625 10.953125 C 13.347656 11.398438 13.425781 11.828125 13.601562 12.199219 C 10.292969 18.210938 12.046875 25.722656 17.511719 29.679688 C 18.121094 30.121094 18.972656 29.949219 19.347656 29.296875 C 19.667969 28.738281 19.515625 28.027344 18.992188 27.652344 C 14.550781 24.4375 13.113281 18.347656 15.773438 13.457031 C 16.898438 13.371094 17.792969 12.445312 17.816406 11.292969 C 17.84375 9.984375 16.734375 8.921875 15.398438 9.039062 " fill-opacity="1" fill-rule="nonzero"/><path fill="#26cdd1" d="M 27.320312 2.320312 C 27.308594 2.902344 26.824219 3.367188 26.242188 3.355469 C 25.660156 3.34375 25.199219 2.863281 25.210938 2.277344 C 25.222656 1.695312 25.703125 1.234375 26.285156 1.246094 C 26.867188 1.257812 27.332031 1.738281 27.320312 2.320312 Z M 26.519531 0.0976562 C 25.648438 0 24.859375 0.410156 24.417969 1.074219 C 18.519531 1.425781 13.132812 4.71875 10.15625 9.882812 C 7.796875 13.96875 7.171875 18.734375 8.390625 23.292969 C 9.496094 27.414062 11.988281 30.925781 15.476562 33.304688 C 16.078125 33.71875 16.90625 33.527344 17.273438 32.894531 C 17.597656 32.328125 17.4375 31.601562 16.894531 31.230469 C 10.425781 26.808594 8.347656 18.039062 12.332031 11.136719 C 14.867188 6.742188 19.441406 3.925781 24.460938 3.589844 C 24.855469 4.140625 25.492188 4.503906 26.21875 4.515625 C 27.527344 4.542969 28.59375 3.429688 28.46875 2.089844 C 28.375 1.058594 27.550781 0.214844 26.519531 0.0976562 " fill-opacity="1" fill-rule="nonzero"/><path fill="#0e3196" d="M 36.789062 10.082031 C 36.277344 10.363281 35.636719 10.179688 35.355469 9.667969 C 35.074219 9.15625 35.261719 8.515625 35.769531 8.234375 C 36.28125 7.953125 36.921875 8.136719 37.203125 8.648438 C 37.484375 9.160156 37.296875 9.800781 36.789062 10.082031 Z M 38.089844 7.878906 C 37.503906 7.039062 36.382812 6.714844 35.4375 7.105469 C 35.019531 7.28125 34.691406 7.558594 34.457031 7.898438 C 27.597656 8.039062 21.976562 13.3125 21.285156 20.03125 C 21.207031 20.777344 21.78125 21.429688 22.53125 21.429688 C 23.175781 21.429688 23.714844 20.941406 23.78125 20.296875 C 24.339844 14.84375 28.890625 10.554688 34.453125 10.410156 C 35.089844 11.34375 36.339844 11.65625 37.347656 11.101562 C 38.492188 10.46875 38.859375 8.976562 38.089844 7.878906 " fill-opacity="1" fill-rule="nonzero"/><path fill="#0e3196" d="M 49.863281 14.851562 C 49.351562 15.132812 48.710938 14.945312 48.429688 14.433594 C 48.148438 13.925781 48.332031 13.285156 48.84375 13 C 49.355469 12.71875 49.996094 12.90625 50.277344 13.417969 C 50.558594 13.925781 50.371094 14.570312 49.863281 14.851562 Z M 51.386719 13.046875 C 51.035156 12.242188 50.285156 11.761719 49.488281 11.714844 C 46.238281 6.777344 40.695312 3.753906 34.738281 3.753906 C 30.019531 3.753906 25.585938 5.59375 22.25 8.929688 C 19.234375 11.949219 17.445312 15.867188 17.128906 20.078125 C 17.074219 20.804688 17.652344 21.429688 18.382812 21.429688 C 19.039062 21.429688 19.585938 20.925781 19.632812 20.269531 C 20.226562 12.449219 26.773438 6.269531 34.738281 6.269531 C 39.8125 6.269531 44.535156 8.824219 47.335938 13.007812 C 47.054688 13.625 47.0625 14.359375 47.410156 14.996094 C 48.042969 16.140625 49.539062 16.507812 50.636719 15.734375 C 51.484375 15.136719 51.800781 13.996094 51.386719 13.046875 " fill-opacity="1" fill-rule="nonzero"/></svg>