<svg xmlns="http://www.w3.org/2000/svg" xmlns:xlink="http://www.w3.org/1999/xlink" width="400" zoomAndPan="magnify" viewBox="0 0 300 149.999998" height="200" preserveAspectRatio="xMidYMid meet" version="1.0"><defs><g/></defs><g fill="#031547" fill-opacity="1"><g transform="translate(188.704665, 42.75237)"><g><path d="M 9.21875 0.15625 C 8.613281 0.15625 8.132812 -0.0195312 7.78125 -0.375 C 7.4375 -0.726562 7.265625 -1.191406 7.265625 -1.765625 L 7.265625 -17.984375 L 1.796875 -17.984375 C 0.597656 -17.984375 0 -18.507812 0 -19.5625 C 0 -20.625 0.597656 -21.15625 1.796875 -21.15625 L 16.59375 -21.15625 C 17.800781 -21.15625 18.40625 -20.625 18.40625 -19.5625 C 18.40625 -18.507812 17.800781 -17.984375 16.59375 -17.984375 L 11.140625 -17.984375 L 11.140625 -1.765625 C 11.140625 -1.191406 10.960938 -0.726562 10.609375 -0.375 C 10.253906 -0.0195312 9.789062 0.15625 9.21875 0.15625 Z M 9.21875 0.15625 "/></g></g></g><g fill="#031547" fill-opacity="1"><g transform="translate(208.633085, 42.75237)"><g><path d="M 18.8125 -21.3125 C 19.394531 -21.3125 19.851562 -21.132812 20.1875 -20.78125 C 20.53125 -20.4375 20.703125 -19.972656 20.703125 -19.390625 L 20.703125 -1.765625 C 20.703125 -1.191406 20.523438 -0.722656 20.171875 -0.359375 C 19.828125 0.00390625 19.375 0.1875 18.8125 0.1875 C 18.238281 0.1875 17.78125 0.00390625 17.4375 -0.359375 C 17.09375 -0.722656 16.921875 -1.191406 16.921875 -1.765625 L 16.921875 -9.1875 L 6.09375 -9.1875 L 6.09375 -1.765625 C 6.09375 -1.191406 5.914062 -0.722656 5.5625 -0.359375 C 5.21875 0.00390625 4.753906 0.1875 4.171875 0.1875 C 3.609375 0.1875 3.148438 0.00390625 2.796875 -0.359375 C 2.453125 -0.722656 2.28125 -1.191406 2.28125 -1.765625 L 2.28125 -19.390625 C 2.28125 -19.972656 2.445312 -20.4375 2.78125 -20.78125 C 3.125 -21.132812 3.585938 -21.3125 4.171875 -21.3125 C 4.753906 -21.3125 5.21875 -21.132812 5.5625 -20.78125 C 5.914062 -20.4375 6.09375 -19.972656 6.09375 -19.390625 L 6.09375 -12.3125 L 16.921875 -12.3125 L 16.921875 -19.390625 C 16.921875 -19.972656 17.09375 -20.4375 17.4375 -20.78125 C 17.78125 -21.132812 18.238281 -21.3125 18.8125 -21.3125 Z M 18.8125 -21.3125 "/></g></g></g><g fill="#031547" fill-opacity="1"><g transform="translate(233.153309, 42.75237)"><g><path d="M 4.140625 0 C 3.554688 0 3.097656 -0.15625 2.765625 -0.46875 C 2.441406 -0.789062 2.28125 -1.242188 2.28125 -1.828125 L 2.28125 -19.328125 C 2.28125 -19.910156 2.441406 -20.359375 2.765625 -20.671875 C 3.097656 -20.992188 3.554688 -21.15625 4.140625 -21.15625 L 14.984375 -21.15625 C 15.554688 -21.15625 16.003906 -21.023438 16.328125 -20.765625 C 16.648438 -20.503906 16.8125 -20.132812 16.8125 -19.65625 C 16.8125 -19.15625 16.648438 -18.769531 16.328125 -18.5 C 16.003906 -18.226562 15.554688 -18.09375 14.984375 -18.09375 L 6.0625 -18.09375 L 6.0625 -12.28125 L 14.375 -12.28125 C 14.957031 -12.28125 15.40625 -12.148438 15.71875 -11.890625 C 16.039062 -11.628906 16.203125 -11.25 16.203125 -10.75 C 16.203125 -10.269531 16.039062 -9.898438 15.71875 -9.640625 C 15.40625 -9.378906 14.957031 -9.25 14.375 -9.25 L 6.0625 -9.25 L 6.0625 -3.0625 L 14.984375 -3.0625 C 15.554688 -3.0625 16.003906 -2.925781 16.328125 -2.65625 C 16.648438 -2.382812 16.8125 -2 16.8125 -1.5 C 16.8125 -1.019531 16.648438 -0.648438 16.328125 -0.390625 C 16.003906 -0.128906 15.554688 0 14.984375 0 Z M 4.140625 0 "/></g></g></g><g fill="#031547" fill-opacity="1"><g transform="translate(252.360912, 42.75237)"><g/></g></g><g fill="#031547" fill-opacity="1"><g transform="translate(166.274979, 84.752367)"><g><path d="M 9.609375 0.265625 C 8.066406 0.265625 6.609375 0.0625 5.234375 -0.34375 C 3.867188 -0.75 2.753906 -1.304688 1.890625 -2.015625 C 1.429688 -2.347656 1.203125 -2.828125 1.203125 -3.453125 C 1.203125 -3.867188 1.328125 -4.234375 1.578125 -4.546875 C 1.828125 -4.859375 2.125 -5.015625 2.46875 -5.015625 C 2.820312 -5.015625 3.226562 -4.875 3.6875 -4.59375 C 4.550781 -3.96875 5.453125 -3.515625 6.390625 -3.234375 C 7.328125 -2.960938 8.367188 -2.828125 9.515625 -2.828125 C 10.972656 -2.828125 12.09375 -3.082031 12.875 -3.59375 C 13.65625 -4.101562 14.046875 -4.847656 14.046875 -5.828125 C 14.046875 -6.585938 13.679688 -7.171875 12.953125 -7.578125 C 12.222656 -7.984375 11.007812 -8.378906 9.3125 -8.765625 C 7.539062 -9.140625 6.101562 -9.578125 5 -10.078125 C 3.90625 -10.578125 3.078125 -11.21875 2.515625 -12 C 1.960938 -12.78125 1.6875 -13.773438 1.6875 -14.984375 C 1.6875 -16.222656 2.035156 -17.332031 2.734375 -18.3125 C 3.429688 -19.289062 4.40625 -20.054688 5.65625 -20.609375 C 6.90625 -21.160156 8.3125 -21.4375 9.875 -21.4375 C 12.738281 -21.4375 15.070312 -20.675781 16.875 -19.15625 C 17.132812 -18.925781 17.316406 -18.707031 17.421875 -18.5 C 17.535156 -18.289062 17.59375 -18.023438 17.59375 -17.703125 C 17.59375 -17.285156 17.46875 -16.921875 17.21875 -16.609375 C 16.96875 -16.304688 16.671875 -16.15625 16.328125 -16.15625 C 16.128906 -16.15625 15.941406 -16.179688 15.765625 -16.234375 C 15.597656 -16.296875 15.375 -16.40625 15.09375 -16.5625 C 14.28125 -17.164062 13.488281 -17.613281 12.71875 -17.90625 C 11.945312 -18.195312 11 -18.34375 9.875 -18.34375 C 8.507812 -18.34375 7.429688 -18.066406 6.640625 -17.515625 C 5.859375 -16.960938 5.46875 -16.195312 5.46875 -15.21875 C 5.46875 -14.394531 5.816406 -13.765625 6.515625 -13.328125 C 7.210938 -12.890625 8.398438 -12.476562 10.078125 -12.09375 C 11.859375 -11.695312 13.304688 -11.253906 14.421875 -10.765625 C 15.535156 -10.273438 16.382812 -9.648438 16.96875 -8.890625 C 17.5625 -8.128906 17.859375 -7.175781 17.859375 -6.03125 C 17.859375 -4.789062 17.507812 -3.695312 16.8125 -2.75 C 16.125 -1.800781 15.15625 -1.0625 13.90625 -0.53125 C 12.65625 0 11.222656 0.265625 9.609375 0.265625 Z M 9.609375 0.265625 "/></g></g></g><g fill="#031547" fill-opacity="1"><g transform="translate(186.953697, 84.752367)"><g><path d="M 9.21875 0.15625 C 8.613281 0.15625 8.132812 -0.0195312 7.78125 -0.375 C 7.4375 -0.726562 7.265625 -1.191406 7.265625 -1.765625 L 7.265625 -17.984375 L 1.796875 -17.984375 C 0.597656 -17.984375 0 -18.507812 0 -19.5625 C 0 -20.625 0.597656 -21.15625 1.796875 -21.15625 L 16.59375 -21.15625 C 17.800781 -21.15625 18.40625 -20.625 18.40625 -19.5625 C 18.40625 -18.507812 17.800781 -17.984375 16.59375 -17.984375 L 11.140625 -17.984375 L 11.140625 -1.765625 C 11.140625 -1.191406 10.960938 -0.726562 10.609375 -0.375 C 10.253906 -0.0195312 9.789062 0.15625 9.21875 0.15625 Z M 9.21875 0.15625 "/></g></g></g><g fill="#031547" fill-opacity="1"><g transform="translate(206.882117, 84.752367)"><g><path d="M 11.015625 0.265625 C 8.109375 0.265625 5.90625 -0.484375 4.40625 -1.984375 C 2.90625 -3.484375 2.15625 -5.671875 2.15625 -8.546875 L 2.15625 -19.390625 C 2.15625 -19.972656 2.328125 -20.4375 2.671875 -20.78125 C 3.015625 -21.132812 3.472656 -21.3125 4.046875 -21.3125 C 4.628906 -21.3125 5.085938 -21.132812 5.421875 -20.78125 C 5.765625 -20.4375 5.9375 -19.972656 5.9375 -19.390625 L 5.9375 -8.34375 C 5.9375 -6.519531 6.367188 -5.144531 7.234375 -4.21875 C 8.097656 -3.289062 9.359375 -2.828125 11.015625 -2.828125 C 12.660156 -2.828125 13.910156 -3.296875 14.765625 -4.234375 C 15.628906 -5.171875 16.0625 -6.539062 16.0625 -8.34375 L 16.0625 -19.390625 C 16.0625 -19.972656 16.226562 -20.4375 16.5625 -20.78125 C 16.90625 -21.132812 17.367188 -21.3125 17.953125 -21.3125 C 18.523438 -21.3125 18.984375 -21.132812 19.328125 -20.78125 C 19.671875 -20.4375 19.84375 -19.972656 19.84375 -19.390625 L 19.84375 -8.546875 C 19.84375 -5.691406 19.09375 -3.507812 17.59375 -2 C 16.09375 -0.488281 13.898438 0.265625 11.015625 0.265625 Z M 11.015625 0.265625 "/></g></g></g><g fill="#031547" fill-opacity="1"><g transform="translate(230.411958, 84.752367)"><g><path d="M 4.140625 0 C 3.554688 0 3.097656 -0.15625 2.765625 -0.46875 C 2.441406 -0.789062 2.28125 -1.242188 2.28125 -1.828125 L 2.28125 -19.328125 C 2.28125 -19.910156 2.441406 -20.359375 2.765625 -20.671875 C 3.097656 -20.992188 3.554688 -21.15625 4.140625 -21.15625 L 10.078125 -21.15625 C 13.546875 -21.15625 16.234375 -20.226562 18.140625 -18.375 C 20.054688 -16.53125 21.015625 -13.9375 21.015625 -10.59375 C 21.015625 -7.226562 20.054688 -4.617188 18.140625 -2.765625 C 16.234375 -0.921875 13.546875 0 10.078125 0 Z M 9.84375 -3.15625 C 14.707031 -3.15625 17.140625 -5.632812 17.140625 -10.59375 C 17.140625 -15.539062 14.707031 -18.015625 9.84375 -18.015625 L 6.15625 -18.015625 L 6.15625 -3.15625 Z M 9.84375 -3.15625 "/></g></g></g><g fill="#031547" fill-opacity="1"><g transform="translate(254.572036, 84.752367)"><g><path d="M 15.484375 -20.65625 C 15.847656 -21.09375 16.28125 -21.3125 16.78125 -21.3125 C 17.238281 -21.3125 17.644531 -21.132812 18 -20.78125 C 18.363281 -20.4375 18.546875 -20.023438 18.546875 -19.546875 C 18.546875 -19.140625 18.394531 -18.757812 18.09375 -18.40625 L 11.28125 -10.078125 L 11.28125 -1.765625 C 11.28125 -1.148438 11.097656 -0.671875 10.734375 -0.328125 C 10.378906 0.015625 9.921875 0.1875 9.359375 0.1875 C 8.785156 0.1875 8.316406 0.015625 7.953125 -0.328125 C 7.585938 -0.671875 7.40625 -1.148438 7.40625 -1.765625 L 7.40625 -10.078125 L 0.59375 -18.40625 C 0.300781 -18.757812 0.15625 -19.140625 0.15625 -19.546875 C 0.15625 -20.023438 0.332031 -20.4375 0.6875 -20.78125 C 1.050781 -21.132812 1.460938 -21.3125 1.921875 -21.3125 C 2.421875 -21.3125 2.851562 -21.09375 3.21875 -20.65625 L 9.359375 -13.03125 Z M 15.484375 -20.65625 "/></g></g></g><g fill="#031547" fill-opacity="1"><g transform="translate(274.790598, 84.752367)"><g/></g></g><g fill="#031547" fill-opacity="1"><g transform="translate(190.321853, 126.752365)"><g><path d="M 18.8125 -21.3125 C 19.394531 -21.3125 19.851562 -21.132812 20.1875 -20.78125 C 20.53125 -20.4375 20.703125 -19.972656 20.703125 -19.390625 L 20.703125 -1.765625 C 20.703125 -1.191406 20.523438 -0.722656 20.171875 -0.359375 C 19.828125 0.00390625 19.375 0.1875 18.8125 0.1875 C 18.238281 0.1875 17.78125 0.00390625 17.4375 -0.359375 C 17.09375 -0.722656 16.921875 -1.191406 16.921875 -1.765625 L 16.921875 -9.1875 L 6.09375 -9.1875 L 6.09375 -1.765625 C 6.09375 -1.191406 5.914062 -0.722656 5.5625 -0.359375 C 5.21875 0.00390625 4.753906 0.1875 4.171875 0.1875 C 3.609375 0.1875 3.148438 0.00390625 2.796875 -0.359375 C 2.453125 -0.722656 2.28125 -1.191406 2.28125 -1.765625 L 2.28125 -19.390625 C 2.28125 -19.972656 2.445312 -20.4375 2.78125 -20.78125 C 3.125 -21.132812 3.585938 -21.3125 4.171875 -21.3125 C 4.753906 -21.3125 5.21875 -21.132812 5.5625 -20.78125 C 5.914062 -20.4375 6.09375 -19.972656 6.09375 -19.390625 L 6.09375 -12.3125 L 16.921875 -12.3125 L 16.921875 -19.390625 C 16.921875 -19.972656 17.09375 -20.4375 17.4375 -20.78125 C 17.78125 -21.132812 18.238281 -21.3125 18.8125 -21.3125 Z M 18.8125 -21.3125 "/></g></g></g><g fill="#031547" fill-opacity="1"><g transform="translate(214.842077, 126.752365)"><g><path d="M 11.015625 0.265625 C 8.109375 0.265625 5.90625 -0.484375 4.40625 -1.984375 C 2.90625 -3.484375 2.15625 -5.671875 2.15625 -8.546875 L 2.15625 -19.390625 C 2.15625 -19.972656 2.328125 -20.4375 2.671875 -20.78125 C 3.015625 -21.132812 3.472656 -21.3125 4.046875 -21.3125 C 4.628906 -21.3125 5.085938 -21.132812 5.421875 -20.78125 C 5.765625 -20.4375 5.9375 -19.972656 5.9375 -19.390625 L 5.9375 -8.34375 C 5.9375 -6.519531 6.367188 -5.144531 7.234375 -4.21875 C 8.097656 -3.289062 9.359375 -2.828125 11.015625 -2.828125 C 12.660156 -2.828125 13.910156 -3.296875 14.765625 -4.234375 C 15.628906 -5.171875 16.0625 -6.539062 16.0625 -8.34375 L 16.0625 -19.390625 C 16.0625 -19.972656 16.226562 -20.4375 16.5625 -20.78125 C 16.90625 -21.132812 17.367188 -21.3125 17.953125 -21.3125 C 18.523438 -21.3125 18.984375 -21.132812 19.328125 -20.78125 C 19.671875 -20.4375 19.84375 -19.972656 19.84375 -19.390625 L 19.84375 -8.546875 C 19.84375 -5.691406 19.09375 -3.507812 17.59375 -2 C 16.09375 -0.488281 13.898438 0.265625 11.015625 0.265625 Z M 11.015625 0.265625 "/></g></g></g><g fill="#031547" fill-opacity="1"><g transform="translate(238.371918, 126.752365)"><g><path d="M 15.3125 -10.921875 C 16.53125 -10.585938 17.472656 -9.96875 18.140625 -9.0625 C 18.816406 -8.164062 19.15625 -7.066406 19.15625 -5.765625 C 19.15625 -3.960938 18.507812 -2.550781 17.21875 -1.53125 C 15.925781 -0.507812 14.148438 0 11.890625 0 L 4.140625 0 C 3.554688 0 3.097656 -0.15625 2.765625 -0.46875 C 2.441406 -0.789062 2.28125 -1.242188 2.28125 -1.828125 L 2.28125 -19.328125 C 2.28125 -19.910156 2.441406 -20.359375 2.765625 -20.671875 C 3.097656 -20.992188 3.554688 -21.15625 4.140625 -21.15625 L 11.59375 -21.15625 C 13.789062 -21.15625 15.515625 -20.671875 16.765625 -19.703125 C 18.015625 -18.734375 18.640625 -17.378906 18.640625 -15.640625 C 18.640625 -14.515625 18.34375 -13.539062 17.75 -12.71875 C 17.164062 -11.90625 16.351562 -11.304688 15.3125 -10.921875 Z M 6.0625 -12.25 L 10.953125 -12.25 C 13.617188 -12.25 14.953125 -13.238281 14.953125 -15.21875 C 14.953125 -16.21875 14.617188 -16.957031 13.953125 -17.4375 C 13.296875 -17.914062 12.296875 -18.15625 10.953125 -18.15625 L 6.0625 -18.15625 Z M 11.46875 -3 C 12.863281 -3 13.878906 -3.25 14.515625 -3.75 C 15.160156 -4.25 15.484375 -5.03125 15.484375 -6.09375 C 15.484375 -7.15625 15.15625 -7.945312 14.5 -8.46875 C 13.851562 -8.988281 12.84375 -9.25 11.46875 -9.25 L 6.0625 -9.25 L 6.0625 -3 Z M 11.46875 -3 "/></g></g></g><path fill="#26cdd1" d="M 128.101562 71.839844 C 126.765625 71.035156 126.339844 69.304688 127.144531 67.976562 C 127.949219 66.644531 129.683594 66.214844 131.019531 67.019531 C 132.351562 67.824219 132.78125 69.554688 131.972656 70.882812 C 131.167969 72.214844 129.433594 72.640625 128.101562 71.839844 Z M 134.945312 71.90625 C 136.101562 69.425781 135.355469 66.410156 133.179688 64.746094 C 132.222656 64.011719 131.132812 63.625 130.039062 63.535156 C 120.539062 47.867188 100.804688 41.90625 84.324219 49.265625 C 82.492188 50.082031 81.753906 52.28125 82.757812 54.015625 C 83.621094 55.503906 85.472656 56.097656 87.046875 55.390625 C 100.425781 49.410156 116.445312 54.207031 124.210938 66.875 C 122.90625 69.589844 123.855469 72.902344 126.492188 74.492188 C 129.480469 76.292969 133.425781 75.152344 134.945312 71.90625 " fill-opacity="1" fill-rule="nonzero"/><path fill="#26cdd1" d="M 134.550781 108.410156 C 133.21875 107.609375 132.789062 105.878906 133.59375 104.546875 C 134.402344 103.214844 136.132812 102.789062 137.46875 103.59375 C 138.800781 104.398438 139.230469 106.128906 138.425781 107.457031 C 137.617188 108.789062 135.882812 109.214844 134.550781 108.410156 Z M 140.769531 109.53125 C 142.164062 107.648438 142.265625 105.277344 141.316406 103.371094 C 148.398438 89.265625 147.976562 72.425781 140.007812 58.664062 C 133.695312 47.757812 123.507812 39.960938 111.316406 36.703125 C 100.296875 33.757812 88.835938 34.839844 78.660156 39.722656 C 76.898438 40.570312 76.226562 42.734375 77.207031 44.425781 C 78.082031 45.9375 79.980469 46.527344 81.558594 45.773438 C 100.460938 36.714844 123.535156 43.605469 134.1875 62.011719 C 140.976562 73.738281 141.378906 88.066406 135.433594 100.117188 C 133.636719 100.292969 131.941406 101.28125 130.933594 102.941406 C 129.125 105.929688 130.273438 109.875 133.542969 111.382812 C 136.0625 112.542969 139.121094 111.757812 140.769531 109.53125 " fill-opacity="1" fill-rule="nonzero"/><path fill="#0e3196" d="M 103.910156 119.953125 C 103.941406 118.398438 105.230469 117.164062 106.789062 117.195312 C 108.347656 117.226562 109.585938 118.511719 109.554688 120.0625 C 109.523438 121.617188 108.234375 122.851562 106.675781 122.820312 C 105.117188 122.789062 103.878906 121.503906 103.910156 119.953125 Z M 107.273438 125.898438 C 110.007812 125.660156 112.253906 123.507812 112.609375 120.792969 C 112.765625 119.601562 112.5625 118.464844 112.089844 117.472656 C 120.941406 101.433594 116.25 81.40625 101.621094 70.851562 C 99.996094 69.675781 97.71875 70.136719 96.714844 71.871094 C 95.851562 73.363281 96.265625 75.257812 97.664062 76.265625 C 109.546875 84.828125 113.390625 101.066406 106.277344 114.113281 C 103.265625 114.339844 100.867188 116.816406 100.804688 119.890625 C 100.734375 123.371094 103.699219 126.210938 107.273438 125.898438 " fill-opacity="1" fill-rule="nonzero"/><path fill="#0e3196" d="M 75.382812 143.808594 C 75.414062 142.257812 76.703125 141.019531 78.261719 141.050781 C 79.816406 141.082031 81.054688 142.367188 81.023438 143.921875 C 80.996094 145.476562 79.707031 146.710938 78.148438 146.679688 C 76.589844 146.648438 75.351562 145.363281 75.382812 143.808594 Z M 77.519531 149.742188 C 79.851562 150.003906 81.960938 148.90625 83.144531 147.132812 C 98.929688 146.199219 113.339844 137.414062 121.304688 123.648438 C 127.613281 112.746094 129.292969 100.046875 126.027344 87.882812 C 123.070312 76.894531 116.398438 67.53125 107.074219 61.1875 C 105.457031 60.085938 103.242188 60.589844 102.265625 62.28125 C 101.386719 63.792969 101.824219 65.730469 103.273438 66.714844 C 120.585938 78.515625 126.140625 101.890625 115.488281 120.300781 C 108.699219 132.023438 96.460938 139.535156 83.027344 140.425781 C 81.976562 138.960938 80.269531 137.992188 78.324219 137.953125 C 74.824219 137.882812 71.976562 140.847656 72.300781 144.425781 C 72.550781 147.179688 74.765625 149.429688 77.519531 149.742188 " fill-opacity="1" fill-rule="nonzero"/><path fill="#26cdd1" d="M 50.042969 123.113281 C 51.410156 122.363281 53.125 122.859375 53.878906 124.21875 C 54.628906 125.582031 54.132812 127.292969 52.769531 128.042969 C 51.402344 128.792969 49.6875 128.296875 48.933594 126.9375 C 48.183594 125.574219 48.679688 123.863281 50.042969 123.113281 Z M 46.5625 128.992188 C 48.136719 131.230469 51.128906 132.097656 53.660156 131.046875 C 54.777344 130.585938 55.660156 129.839844 56.285156 128.9375 C 74.636719 128.566406 89.679688 114.5 91.53125 96.585938 C 91.738281 94.59375 90.195312 92.855469 88.191406 92.855469 C 86.464844 92.855469 85.027344 94.160156 84.851562 95.875 C 83.355469 110.421875 71.179688 121.859375 56.296875 122.234375 C 54.59375 119.75 51.242188 118.917969 48.546875 120.398438 C 45.488281 122.078125 44.503906 126.058594 46.5625 128.992188 " fill-opacity="1" fill-rule="nonzero"/><path fill="#26cdd1" d="M 15.066406 110.398438 C 16.429688 109.648438 18.148438 110.144531 18.898438 111.503906 C 19.652344 112.867188 19.152344 114.578125 17.789062 115.328125 C 16.425781 116.078125 14.707031 115.585938 13.957031 114.222656 C 13.203125 112.859375 13.703125 111.148438 15.066406 110.398438 Z M 10.984375 115.210938 C 11.921875 117.355469 13.929688 118.628906 16.058594 118.765625 C 24.761719 131.933594 39.597656 139.984375 55.53125 139.984375 C 68.152344 139.984375 80.015625 135.085938 88.941406 126.183594 C 97.007812 118.136719 101.800781 107.691406 102.644531 96.460938 C 102.792969 94.515625 101.25 92.855469 99.292969 92.855469 C 97.539062 92.855469 96.078125 94.199219 95.945312 95.941406 C 94.359375 116.800781 76.835938 133.285156 55.53125 133.285156 C 41.957031 133.285156 29.3125 126.46875 21.828125 115.308594 C 22.570312 113.667969 22.558594 111.707031 21.621094 110.007812 C 19.933594 106.953125 15.933594 105.976562 12.992188 108.042969 C 10.722656 109.640625 9.875 112.675781 10.984375 115.210938 " fill-opacity="1" fill-rule="nonzero"/><path fill="#0e3196" d="M 20.367188 78.160156 C 21.699219 78.964844 22.128906 80.695312 21.320312 82.023438 C 20.515625 83.355469 18.78125 83.785156 17.449219 82.980469 C 16.113281 82.175781 15.6875 80.445312 16.492188 79.117188 C 17.296875 77.785156 19.03125 77.359375 20.367188 78.160156 Z M 13.523438 78.09375 C 12.363281 80.574219 13.109375 83.589844 15.285156 85.253906 C 16.242188 85.988281 17.332031 86.375 18.429688 86.464844 C 27.929688 102.132812 47.664062 108.09375 64.140625 100.734375 C 65.972656 99.917969 66.710938 97.71875 65.710938 95.984375 C 64.847656 94.496094 62.992188 93.902344 61.417969 94.609375 C 48.039062 100.589844 32.023438 95.792969 24.253906 83.125 C 25.5625 80.410156 24.609375 77.097656 21.972656 75.507812 C 18.984375 73.707031 15.039062 74.847656 13.523438 78.09375 " fill-opacity="1" fill-rule="nonzero"/><path fill="#0e3196" d="M 13.917969 41.589844 C 15.25 42.390625 15.675781 44.121094 14.871094 45.453125 C 14.066406 46.785156 12.332031 47.210938 10.996094 46.40625 C 9.664062 45.601562 9.234375 43.871094 10.042969 42.542969 C 10.847656 41.210938 12.582031 40.785156 13.917969 41.589844 Z M 7.699219 40.46875 C 6.304688 42.351562 6.199219 44.722656 7.148438 46.628906 C 0.0664062 60.734375 0.492188 77.574219 8.457031 91.335938 C 14.769531 102.242188 24.957031 110.039062 37.148438 113.296875 C 48.167969 116.242188 59.632812 115.160156 69.804688 110.277344 C 71.570312 109.429688 72.238281 107.265625 71.261719 105.574219 C 70.382812 104.0625 68.484375 103.472656 66.90625 104.226562 C 48.003906 113.285156 24.929688 106.394531 14.277344 87.988281 C 7.492188 76.261719 7.085938 61.933594 13.03125 49.882812 C 14.832031 49.707031 16.523438 48.714844 17.53125 47.054688 C 19.339844 44.070312 18.191406 40.125 14.921875 38.617188 C 12.402344 37.457031 9.347656 38.242188 7.699219 40.46875 " fill-opacity="1" fill-rule="nonzero"/><path fill="#26cdd1" d="M 44.554688 30.046875 C 44.523438 31.601562 43.234375 32.835938 41.675781 32.804688 C 40.117188 32.773438 38.882812 31.488281 38.914062 29.9375 C 38.945312 28.382812 40.230469 27.148438 41.789062 27.179688 C 43.347656 27.210938 44.585938 28.492188 44.554688 30.046875 Z M 41.191406 24.101562 C 38.460938 24.339844 36.210938 26.492188 35.855469 29.207031 C 35.699219 30.398438 35.90625 31.535156 36.375 32.527344 C 27.523438 48.566406 32.21875 68.59375 46.84375 79.148438 C 48.46875 80.324219 50.75 79.863281 51.75 78.128906 C 52.613281 76.636719 52.199219 74.742188 50.800781 73.734375 C 38.917969 65.167969 35.074219 48.933594 42.191406 35.886719 C 45.199219 35.660156 47.597656 33.183594 47.660156 30.109375 C 47.730469 26.628906 44.769531 23.789062 41.191406 24.101562 " fill-opacity="1" fill-rule="nonzero"/><path fill="#26cdd1" d="M 73.082031 6.191406 C 73.050781 7.742188 71.761719 8.980469 70.207031 8.949219 C 68.648438 8.917969 67.410156 7.632812 67.441406 6.078125 C 67.472656 4.523438 68.757812 3.289062 70.316406 3.320312 C 71.875 3.351562 73.113281 4.636719 73.082031 6.191406 Z M 70.945312 0.257812 C 68.613281 -0.00390625 66.503906 1.09375 65.320312 2.863281 C 49.539062 3.800781 35.128906 12.585938 27.160156 26.351562 C 20.851562 37.253906 19.175781 49.953125 22.441406 62.117188 C 25.394531 73.105469 32.066406 82.46875 41.394531 88.8125 C 43.007812 89.914062 45.222656 89.410156 46.199219 87.71875 C 47.078125 86.207031 46.640625 84.269531 45.195312 83.285156 C 27.878906 71.484375 22.328125 48.109375 32.980469 29.699219 C 39.765625 17.976562 52.007812 10.464844 65.4375 9.574219 C 66.492188 11.039062 68.199219 12.007812 70.144531 12.046875 C 73.640625 12.117188 76.492188 9.152344 76.164062 5.574219 C 75.914062 2.820312 73.703125 0.570312 70.945312 0.257812 " fill-opacity="1" fill-rule="nonzero"/><path fill="#0e3196" d="M 98.421875 26.886719 C 97.058594 27.636719 95.339844 27.140625 94.585938 25.78125 C 93.835938 24.417969 94.332031 22.707031 95.699219 21.957031 C 97.0625 21.207031 98.777344 21.703125 99.53125 23.0625 C 100.28125 24.425781 99.785156 26.136719 98.421875 26.886719 Z M 101.902344 21.007812 C 100.328125 18.769531 97.335938 17.902344 94.804688 18.953125 C 93.691406 19.414062 92.804688 20.160156 92.183594 21.0625 C 73.828125 21.433594 58.785156 35.5 56.933594 53.414062 C 56.730469 55.40625 58.269531 57.144531 60.273438 57.144531 C 62 57.144531 63.441406 55.839844 63.617188 54.125 C 65.109375 39.578125 77.285156 28.140625 92.167969 27.765625 C 93.871094 30.25 97.222656 31.082031 99.921875 29.601562 C 102.980469 27.921875 103.964844 23.941406 101.902344 21.007812 " fill-opacity="1" fill-rule="nonzero"/><path fill="#0e3196" d="M 133.398438 39.601562 C 132.035156 40.351562 130.320312 39.855469 129.566406 38.496094 C 128.8125 37.132812 129.3125 35.421875 130.675781 34.671875 C 132.039062 33.921875 133.757812 34.414062 134.507812 35.777344 C 135.261719 37.140625 134.765625 38.851562 133.398438 39.601562 Z M 137.480469 34.789062 C 136.542969 32.644531 134.535156 31.371094 132.40625 31.234375 C 123.703125 18.066406 108.871094 10.015625 92.9375 10.015625 C 80.3125 10.015625 68.449219 14.914062 59.523438 23.816406 C 51.457031 31.863281 46.664062 42.308594 45.820312 53.539062 C 45.671875 55.484375 47.21875 57.144531 49.171875 57.144531 C 50.925781 57.144531 52.386719 55.800781 52.519531 54.058594 C 54.105469 33.199219 71.628906 16.714844 92.9375 16.714844 C 106.507812 16.714844 119.152344 23.53125 126.640625 34.691406 C 125.894531 36.332031 125.90625 38.292969 126.84375 39.992188 C 128.535156 43.046875 132.53125 44.023438 135.472656 41.957031 C 137.742188 40.359375 138.589844 37.324219 137.480469 34.789062 " fill-opacity="1" fill-rule="nonzero"/></svg>